<svg width="28" height="28" viewBox="0 0 28 28" fill="none" xmlns="http://www.w3.org/2000/svg">
<path d="M14.1029 4.96329C12.26 4.96329 10.4926 5.69537 9.18951 6.99847C7.88641 8.30157 7.15433 10.069 7.15433 11.9118V16.8751C7.15433 17.6649 6.84059 18.4223 6.28211 18.9808C5.72364 19.5393 4.96619 19.853 4.17639 19.853H24.0293C23.2395 19.853 22.4821 19.5393 21.9236 18.9808C21.3651 18.4223 21.0514 17.6649 21.0514 16.8751V11.9118C21.0514 10.069 20.3193 8.30157 19.0162 6.99847C17.7131 5.69537 15.9457 4.96329 14.1029 4.96329ZM14.1029 4.96329V1.98535M15.8201 23.8236C15.6456 24.1244 15.3951 24.3742 15.0937 24.5478C14.7924 24.7213 14.4507 24.8127 14.1029 24.8127C13.7551 24.8127 13.4134 24.7213 13.112 24.5478C12.8106 24.3742 12.5601 24.1244 12.3856 23.8236" stroke="#666666" stroke-width="0.992647" stroke-linecap="round" stroke-linejoin="round"/>
</svg>
