<svg width="29" height="28" viewBox="0 0 29 28" fill="none" xmlns="http://www.w3.org/2000/svg">
<path d="M14.8089 16.875C16.4536 16.875 17.7868 15.5417 17.7868 13.897C17.7868 12.2524 16.4536 10.9191 14.8089 10.9191C13.1642 10.9191 11.8309 12.2524 11.8309 13.897C11.8309 15.5417 13.1642 16.875 14.8089 16.875Z" stroke="#666666" stroke-width="0.992647" stroke-linecap="round" stroke-linejoin="round"/>
<path d="M22.1545 16.875C22.0223 17.1744 21.9829 17.5065 22.0413 17.8285C22.0997 18.1505 22.2532 18.4476 22.4821 18.6816L22.5416 18.7411C22.7262 18.9255 22.8726 19.1445 22.9725 19.3855C23.0724 19.6265 23.1239 19.8848 23.1239 20.1457C23.1239 20.4066 23.0724 20.665 22.9725 20.906C22.8726 21.147 22.7262 21.366 22.5416 21.5503C22.3572 21.7349 22.1383 21.8814 21.8973 21.9813C21.6563 22.0812 21.3979 22.1326 21.137 22.1326C20.8761 22.1326 20.6178 22.0812 20.3768 21.9813C20.1358 21.8814 19.9168 21.7349 19.7324 21.5503L19.6729 21.4908C19.4389 21.2619 19.1418 21.1084 18.8198 21.05C18.4978 20.9916 18.1656 21.0311 17.8662 21.1632C17.5726 21.289 17.3223 21.498 17.1459 21.7643C16.9695 22.0306 16.8749 22.3427 16.8736 22.6621V22.8308C16.8736 23.3574 16.6644 23.8623 16.2921 24.2347C15.9198 24.607 15.4148 24.8161 14.8883 24.8161C14.3618 24.8161 13.8568 24.607 13.4845 24.2347C13.1122 23.8623 12.903 23.3574 12.903 22.8308V22.7415C12.8953 22.4129 12.789 22.0943 12.5978 21.827C12.4066 21.5597 12.1394 21.3561 11.8309 21.2426C11.5315 21.1105 11.1994 21.0711 10.8774 21.1294C10.5554 21.1878 10.2583 21.3413 10.0243 21.5702L9.96477 21.6297C9.78039 21.8143 9.56144 21.9608 9.32042 22.0607C9.07941 22.1606 8.82107 22.212 8.56018 22.212C8.29928 22.212 8.04094 22.1606 7.79993 22.0607C7.55892 21.9608 7.33996 21.8143 7.15558 21.6297C6.97099 21.4454 6.82456 21.2264 6.72465 20.9854C6.62474 20.7444 6.57332 20.486 6.57332 20.2251C6.57332 19.9643 6.62474 19.7059 6.72465 19.4649C6.82456 19.2239 6.97099 19.0049 7.15558 18.8206L7.21514 18.761C7.44398 18.527 7.59749 18.2299 7.65588 17.9079C7.71426 17.5859 7.67485 17.2538 7.54271 16.9544C7.41688 16.6608 7.20795 16.4104 6.94163 16.234C6.67531 16.0577 6.36324 15.963 6.04381 15.9617H5.87506C5.34853 15.9617 4.84356 15.7526 4.47125 15.3802C4.09893 15.0079 3.88977 14.503 3.88977 13.9764C3.88977 13.4499 4.09893 12.9449 4.47125 12.5726C4.84356 12.2003 5.34853 11.9911 5.87506 11.9911H5.9644C6.29296 11.9835 6.61161 11.8771 6.87893 11.6859C7.14624 11.4947 7.34986 11.2275 7.4633 10.9191C7.59544 10.6197 7.63485 10.2876 7.57647 9.96556C7.51808 9.64355 7.36457 9.34641 7.13573 9.11246L7.07617 9.05291C6.89158 8.86853 6.74515 8.64957 6.64524 8.40856C6.54533 8.16755 6.49391 7.90921 6.49391 7.64831C6.49391 7.38741 6.54533 7.12907 6.64524 6.88806C6.74515 6.64705 6.89158 6.42809 7.07617 6.24371C7.26055 6.05913 7.4795 5.9127 7.72051 5.81279C7.96153 5.71288 8.21986 5.66145 8.48076 5.66145C8.74166 5.66145 9 5.71288 9.24101 5.81279C9.48202 5.9127 9.70098 6.05913 9.88536 6.24371L9.94492 6.30327C10.1789 6.53211 10.476 6.68563 10.798 6.74401C11.12 6.8024 11.4521 6.76298 11.7515 6.63085H11.8309C12.1245 6.50502 12.3749 6.29608 12.5513 6.02976C12.7277 5.76345 12.8223 5.45137 12.8236 5.13195V4.9632C12.8236 4.43667 13.0328 3.9317 13.4051 3.55938C13.7774 3.18707 14.2824 2.97791 14.8089 2.97791C15.3354 2.97791 15.8404 3.18707 16.2127 3.55938C16.585 3.9317 16.7942 4.43667 16.7942 4.9632V5.05254C16.7955 5.37196 16.8901 5.68404 17.0665 5.95035C17.2428 6.21667 17.4932 6.4256 17.7868 6.55143C18.0862 6.68357 18.4183 6.72299 18.7404 6.6646C19.0624 6.60621 19.3595 6.4527 19.5934 6.22386L19.653 6.1643C19.8374 5.97972 20.0563 5.83328 20.2974 5.73338C20.5384 5.63347 20.7967 5.58204 21.0576 5.58204C21.3185 5.58204 21.5768 5.63347 21.8179 5.73338C22.0589 5.83328 22.2778 5.97972 22.4622 6.1643C22.6468 6.34868 22.7932 6.56764 22.8931 6.80865C22.993 7.04966 23.0445 7.308 23.0445 7.5689C23.0445 7.8298 22.993 8.08814 22.8931 8.32915C22.7932 8.57016 22.6468 8.78911 22.4622 8.97349L22.4026 9.03305C22.1738 9.267 22.0203 9.56413 21.9619 9.88614C21.9035 10.2082 21.9429 10.5403 22.0751 10.8397V10.9191C22.2009 11.2127 22.4098 11.4631 22.6761 11.6394C22.9425 11.8158 23.2545 11.9105 23.574 11.9117H23.7427C24.2692 11.9117 24.7742 12.1209 25.1465 12.4932C25.5188 12.8655 25.728 13.3705 25.728 13.897C25.728 14.4236 25.5188 14.9285 25.1465 15.3008C24.7742 15.6732 24.2692 15.8823 23.7427 15.8823H23.6534C23.334 15.8836 23.0219 15.9782 22.7556 16.1546C22.4892 16.331 22.2803 16.5814 22.1545 16.875Z" stroke="#666666" stroke-width="0.992647" stroke-linecap="round" stroke-linejoin="round"/>
</svg>
